<?xml version="1.0" encoding="utf-8"?>
<!-- Generator: Adobe Illustrator 23.0.3, SVG Export Plug-In . SVG Version: 6.00 Build 0)  -->
<svg version="1.1" xmlns="http://www.w3.org/2000/svg" xmlns:xlink="http://www.w3.org/1999/xlink" x="0px" y="0px"
	 viewBox="0 0 40 40" style="enable-background:new 0 0 40 40;" xml:space="preserve">
<style type="text/css">
	.st0{display:none;}
	.st1{display:inline;}
	.st2{fill:#21218E;}
</style>
<g id="Capa_1" class="st0">
	<g class="st1">
		<path class="st2" d="M39.9,22.3c0-1-0.4-2-1.1-2.7l-6.1-6.8c-0.2-0.2-0.4-0.3-0.6-0.3h-7.5c-0.5,0-0.8,0.4-0.8,0.8v7H8.2
			c-1.4,0-2.5,1.1-2.5,2.5v5.1c0,1.3,1.1,2.5,2.4,2.5c0.5,2.3,2.7,3.7,5,3.3c1.6-0.3,2.9-1.6,3.3-3.3h12.5c0.5,2.3,2.7,3.7,5,3.3
			c1.6-0.3,2.9-1.6,3.3-3.3h0.3c0.7,0,1.3-0.3,1.8-0.8c0.5-0.5,0.7-1.1,0.7-1.8L39.9,22.3z M12.3,32.2c-1.4,0-2.5-1.1-2.4-2.5
			s1.1-2.5,2.5-2.4c1.3,0,2.4,1.1,2.4,2.5C14.8,31.1,13.7,32.2,12.3,32.2L12.3,32.2z M33,32.2c-1.4,0-2.5-1.1-2.5-2.5
			s1.1-2.5,2.5-2.5s2.5,1.1,2.5,2.5C35.5,31,34.5,32.1,33,32.2C33.1,32.2,33.1,32.2,33,32.2z M38.1,28.5c-0.2,0.2-0.4,0.3-0.6,0.3
			h-0.4c-0.5-1.9-2.1-3.2-4.1-3.2c-1.9,0-3.6,1.3-4,3.2H16.3c-0.5-1.9-2.1-3.2-4.1-3.2s-3.6,1.3-4,3.2c-0.5,0-0.8-0.4-0.8-0.8v-5.1
			c0-0.5,0.4-0.8,0.8-0.8h16.5c0.5,0,0.8-0.4,0.8-0.8v-7h6.3l5.8,6.6c0.4,0.5,0.6,1.1,0.6,1.6l0.1,5.5
			C38.3,28.1,38.2,28.3,38.1,28.5z"/>
		<path class="st2" d="M31.1,16c-0.1-0.2-0.4-0.3-0.6-0.3h-2.6c-0.5,0-0.8,0.4-0.8,0.8v4.5c0,0.5,0.4,0.8,0.8,0.8h6.4
			c0.3,0,0.6-0.2,0.8-0.5c0.1-0.3,0.1-0.6-0.1-0.9L31.1,16z M28.8,20.3v-2.9h1.3l2.4,2.9H28.8z"/>
		<path class="st2" d="M21.1,18.8c0.5,0,0.8-0.4,0.8-0.8V7.9C22,7.4,21.6,7,21.1,7H9.3C8.8,7,8.4,7.4,8.4,7.9V18
			c0,0.5,0.4,0.8,0.8,0.8L21.1,18.8z M14.3,8.7h1.8V10h-1.8V8.7z M10.1,8.7h2.5v2.1c0,0.5,0.4,0.8,0.8,0.8h3.4
			c0.4,0,0.8-0.3,0.8-0.8c0,0,0,0,0-0.1V8.7h2.5v8.4H10.1V8.7z"/>
		<path class="st2" d="M1.6,9.1c0,0.5,0.4,0.8,0.8,0.8l0,0h3.3c0.5,0,0.8-0.4,0.8-0.8c0-0.4-0.3-0.8-0.8-0.8c0,0,0,0-0.1,0H2.4
			C2,8.2,1.6,8.6,1.6,9.1C1.6,9.1,1.6,9.1,1.6,9.1z"/>
		<path class="st2" d="M0.8,13.9h4.9c0.5,0,0.8-0.4,0.8-0.8c0-0.5-0.4-0.8-0.8-0.8H0.8C0.4,12.2,0,12.6,0,13
			C0,13.5,0.4,13.9,0.8,13.9z"/>
		<path class="st2" d="M6.6,17c0-0.5-0.4-0.8-0.8-0.8H2.4c-0.5,0-0.8,0.4-0.8,0.8c0,0.5,0.4,0.8,0.8,0.8h3.3
			C6.2,17.8,6.6,17.4,6.6,17z"/>
	</g>
</g>
<g id="Capa_2">
	<g>
		<path class="st2" d="M2.2,21.8H0.1V20h2.1v-2.1h1.7V20h2.1v1.7H3.9V24H2.2V21.8z"/>
		<path class="st2" d="M7,17.8c0.2,0,0.3,0,0.4,0c0.2,0,0.4-0.1,0.4-0.2s0.3-0.2,0.4-0.3c0.1-0.1,0.2-0.3,0.2-0.5h2.4v5.3
			c0,0.3,0.1,0.4,0.2,0.5c0.1,0.1,0.3,0.1,0.4,0.1h0.4v2H7.1v-2h0.4c0.2,0,0.4-0.1,0.4-0.2c0.1-0.1,0.1-0.3,0.1-0.4v-2.6H7L7,17.8z"
			/>
		<path class="st2" d="M12.4,23.6c0-0.2,0-0.4,0.1-0.6c0.1-0.2,0.2-0.3,0.3-0.5c0.1-0.2,0.3-0.2,0.4-0.3c0.2-0.1,0.4-0.1,0.5-0.1
			c0.2,0,0.4,0,0.5,0.1c0.2,0.1,0.3,0.2,0.4,0.3c0.2,0.1,0.2,0.3,0.3,0.5s0.1,0.4,0.1,0.6s0,0.4-0.1,0.6s-0.2,0.3-0.3,0.5
			c-0.1,0.2-0.3,0.2-0.4,0.3C14.1,25,14,25,13.8,25c-0.2,0-0.4,0-0.5-0.1c-0.2-0.1-0.3-0.2-0.4-0.3c-0.2-0.1-0.2-0.3-0.3-0.5
			C12.4,24,12.4,23.8,12.4,23.6z"/>
		<path class="st2" d="M15.7,20.9c0-0.6,0.1-1.3,0.3-1.7c0.2-0.5,0.4-0.9,0.8-1.3c0.4-0.4,0.7-0.6,1.2-0.8c0.5-0.2,1-0.3,1.5-0.3
			c0.5,0,1.1,0.1,1.5,0.3c0.4,0.2,0.9,0.5,1.2,0.8s0.6,0.8,0.8,1.3c0.2,0.5,0.3,1.1,0.3,1.7s-0.1,1.3-0.3,1.7
			c-0.2,0.5-0.4,0.9-0.8,1.3s-0.7,0.6-1.2,0.8c-0.5,0.2-1,0.3-1.5,0.3c-0.5,0-1.1-0.1-1.5-0.3c-0.4-0.2-0.9-0.5-1.2-0.8
			c-0.4-0.4-0.6-0.8-0.8-1.3C15.8,22.2,15.7,21.5,15.7,20.9z M18.8,20.9c0,0.8,0.1,1.5,0.2,1.8c0.1,0.4,0.4,0.6,0.7,0.6
			c0.4,0,0.5-0.2,0.7-0.6s0.2-1,0.2-1.8c0-0.8-0.1-1.5-0.2-1.8c-0.1-0.4-0.4-0.6-0.7-0.6c-0.4,0-0.5,0.2-0.7,0.6
			C18.8,19.4,18.8,20,18.8,20.9z"/>
		<path class="st2" d="M24,20.9c0-0.6,0.1-1.3,0.3-1.7c0.2-0.5,0.4-0.9,0.8-1.3c0.4-0.4,0.7-0.6,1.2-0.8c0.5-0.2,1-0.3,1.5-0.3
			c0.5,0,1.1,0.1,1.5,0.3c0.4,0.2,0.9,0.5,1.2,0.8s0.6,0.8,0.8,1.3c0.2,0.5,0.3,1.1,0.3,1.7s-0.1,1.3-0.3,1.7
			c-0.2,0.5-0.4,0.9-0.8,1.3s-0.7,0.6-1.2,0.8c-0.5,0.2-1,0.3-1.5,0.3c-0.5,0-1.1-0.1-1.5-0.3c-0.4-0.2-0.9-0.5-1.2-0.8
			s-0.6-0.8-0.8-1.3C24,22.2,24,21.5,24,20.9z M27,20.9c0,0.8,0.1,1.5,0.2,1.8c0.1,0.4,0.4,0.6,0.7,0.6s0.5-0.2,0.7-0.6
			c0.2-0.4,0.2-1,0.2-1.8c0-0.8-0.1-1.5-0.2-1.8s-0.4-0.6-0.7-0.6s-0.5,0.2-0.7,0.6C27,19.4,27,20,27,20.9z"/>
		<path class="st2" d="M32.2,20.9c0-0.6,0.1-1.3,0.3-1.7c0.2-0.5,0.4-0.9,0.8-1.3s0.7-0.6,1.2-0.8c0.5-0.2,1-0.3,1.5-0.3
			c0.5,0,1.1,0.1,1.5,0.3c0.4,0.2,0.9,0.5,1.2,0.8s0.6,0.8,0.8,1.3c0.2,0.5,0.3,1.1,0.3,1.7s-0.1,1.3-0.3,1.7
			c-0.2,0.5-0.4,0.9-0.8,1.3s-0.7,0.6-1.2,0.8C37,24.9,36.5,25,36,25c-0.5,0-1.1-0.1-1.5-0.3c-0.4-0.2-0.9-0.5-1.2-0.8
			s-0.6-0.8-0.8-1.3C32.3,22.2,32.2,21.5,32.2,20.9z M35.2,20.9c0,0.8,0.1,1.5,0.2,1.8c0.1,0.4,0.4,0.6,0.7,0.6
			c0.4,0,0.5-0.2,0.7-0.6c0.2-0.4,0.2-1,0.2-1.8c0-0.8-0.1-1.5-0.2-1.8s-0.4-0.6-0.7-0.6c-0.4,0-0.5,0.2-0.7,0.6
			C35.2,19.4,35.2,20,35.2,20.9z"/>
	</g>
</g>
<g id="Capa_3" class="st0">
	<g class="st1">
		<g>
			<path class="st2" d="M28.2,9c1.6,0,2.8,1.3,2.8,2.8v15.9c0,1.6-1.3,2.8-2.8,2.8H12.3c-1.6,0-2.8-1.3-2.8-2.8V11.8
				c0-1.6,1.3-2.8,2.8-2.8L28.2,9 M28.2,7H12.3c-2.6,0-4.8,2.2-4.8,4.8v15.9c0,2.6,2.2,4.8,4.8,4.8h15.9c2.6,0,4.8-2.2,4.8-4.8V11.8
				C33,9.2,30.8,7,28.2,7L28.2,7z"/>
		</g>
		<path class="st2" d="M20.6,17.8c-0.8,0-1.6,0.2-2.2,0.7c0.5-1.4,1.8-2.3,3.4-2.5c0.4-0.1,0.8-0.1,1.1-0.1c0.1,0,0.1,0,0.2-0.1
			c0.1,0,0.1-0.1,0.1-0.2V14c0-0.1-0.1-0.2-0.2-0.2c-0.3,0-0.7,0-1.2,0.1c-1.8,0.1-3.2,0.7-4.3,1.7c-1.4,1.3-2.1,3.1-2.1,5.3
			c0,3.1,1.8,5.2,4.6,5.2c2.5,0,4.3-1.9,4.3-4.3C24.4,19.4,22.9,17.8,20.6,17.8z M20.1,24c-1.4,0-1.9-1.3-2-2.6c0-0.2,0-0.4,0.1-0.6
			c0.3-0.6,1-1.1,1.7-1.1c1.1,0,1.8,0.8,1.8,2.1S21.1,24,20.1,24z"/>
	</g>
</g>
</svg>
